<svg xmlns="http://www.w3.org/2000/svg" viewBox="0 0 64 64" role="img" aria-label="KikiLink blossom">
  <g transform="rotate(-18 32 32)" fill="#e82142" fill-opacity=".62" stroke="#ff93a3" stroke-opacity=".52" stroke-width="1">
    <ellipse cx="32" cy="18" rx="8.6" ry="14"/>
    <ellipse cx="32" cy="18" rx="8.6" ry="14" transform="rotate(72 32 32)"/>
    <ellipse cx="32" cy="18" rx="8.6" ry="14" transform="rotate(144 32 32)"/>
    <ellipse cx="32" cy="18" rx="8.6" ry="14" transform="rotate(216 32 32)"/>
    <ellipse cx="32" cy="18" rx="8.6" ry="14" transform="rotate(288 32 32)"/>
  </g>
  <g transform="rotate(-18 32 32)" fill="none" stroke="#ffd9df" stroke-linecap="round" stroke-opacity=".24" stroke-width="1.1">
    <path d="M32 31V10"/>
    <path d="M32 31V10" transform="rotate(72 32 32)"/>
    <path d="M32 31V10" transform="rotate(144 32 32)"/>
    <path d="M32 31V10" transform="rotate(216 32 32)"/>
    <path d="M32 31V10" transform="rotate(288 32 32)"/>
  </g>
  <circle cx="32" cy="32" r="6.2" fill="#8d0921" fill-opacity=".92" stroke="#ff8b9c" stroke-opacity=".48" stroke-width="1"/>
  <circle cx="32" cy="32" r="3.1" fill="#efb34e" fill-opacity=".9"/>
</svg>
